<svg width="24" height="24" viewBox="0 0 24 24" fill="none" xmlns="http://www.w3.org/2000/svg">
<path d="M9.80586 21.2979L9.42511 18.3129C9.14878 18.2227 8.85986 18.0948 8.55836 17.9291C8.25669 17.7635 7.99453 17.5883 7.77186 17.4036L5.02511 18.5556L2.81836 14.7171L5.21836 12.9056C5.19219 12.7625 5.17503 12.62 5.16686 12.4781C5.15886 12.3363 5.15486 12.1801 5.15486 12.0094C5.15486 11.8806 5.16094 11.7394 5.17311 11.5859C5.18544 11.4324 5.20311 11.255 5.22611 11.0536L2.81836 9.25764L5.02511 5.45864L7.79636 6.62114C8.02386 6.43331 8.27578 6.25939 8.55211 6.09939C8.82828 5.93956 9.11611 5.80481 9.41561 5.69514L9.80586 2.68164H14.1991L14.5799 5.67689C14.8902 5.79089 15.1689 5.92281 15.4159 6.07264C15.663 6.22231 15.9104 6.40514 16.1579 6.62114L18.9799 5.45864L21.1866 9.25764L18.6876 11.1239C18.7203 11.2847 18.739 11.4299 18.7439 11.5594C18.7487 11.6889 18.7511 11.8349 18.7511 11.9974C18.7511 12.1536 18.7479 12.2996 18.7414 12.4356C18.735 12.5716 18.7145 12.7276 18.6799 12.9036L21.1396 14.7171L18.9329 18.5556L16.1579 17.3739C15.929 17.5662 15.6912 17.7358 15.4444 17.8826C15.1975 18.0293 14.9094 18.1693 14.5799 18.3026L14.1991 21.2979H9.80586ZM11.0064 19.8989H12.9464L13.3196 17.2076C13.8149 17.0743 14.2637 16.8903 14.6659 16.6556C15.0682 16.421 15.4614 16.1107 15.8454 15.7249L18.3424 16.7894L19.3146 15.1119L17.1251 13.4749C17.2001 13.2159 17.2534 12.966 17.2851 12.7251C17.3169 12.4841 17.3329 12.2416 17.3329 11.9974C17.3329 11.7439 17.319 11.5041 17.2914 11.2779C17.2639 11.0516 17.2084 10.807 17.1251 10.5441L19.3339 8.87014L18.3819 7.19039L15.8281 8.27014C15.5254 7.93931 15.1404 7.63672 14.6731 7.36239C14.2058 7.08806 13.7507 6.89639 13.3079 6.78739L12.9936 4.08064H11.0156L10.6971 6.77039C10.1703 6.89906 9.70769 7.07556 9.30936 7.29989C8.91086 7.52422 8.50619 7.83931 8.09536 8.24514L5.62311 7.19039L4.64636 8.87014L6.79811 10.4671C6.71478 10.7178 6.65644 10.9682 6.62311 11.2184C6.58978 11.4686 6.57311 11.7278 6.57311 11.9961C6.57311 12.2466 6.58769 12.4927 6.61686 12.7344C6.64603 12.9761 6.69911 13.2296 6.77611 13.4951L4.64636 15.1094L5.62311 16.7894L8.07811 15.7394C8.47611 16.1374 8.88311 16.4541 9.29911 16.6894C9.71511 16.9246 10.1772 17.1046 10.6854 17.2296L11.0064 19.8989ZM11.9671 14.8989C12.7699 14.8989 13.4532 14.6166 14.0169 14.0521C14.5807 13.4878 14.8626 12.8034 14.8626 11.9989C14.8626 11.1944 14.5804 10.5103 14.0161 9.94664C13.4519 9.38281 12.7678 9.10089 11.9636 9.10089C11.1533 9.10089 10.4675 9.38314 9.90636 9.94764C9.34519 10.512 9.06461 11.1964 9.06461 12.0009C9.06461 12.8054 9.34519 13.4895 9.90636 14.0531C10.4675 14.617 11.1544 14.8989 11.9671 14.8989Z" fill="#1F1F1F"/>
</svg>
